<?xml version="1.0" encoding="UTF-8" standalone="no" ?>
<!DOCTYPE svg PUBLIC "-//W3C//DTD SVG 1.1//EN" "http://www.w3.org/Graphics/SVG/1.1/DTD/svg11.dtd">
<svg xmlns="http://www.w3.org/2000/svg" xmlns:xlink="http://www.w3.org/1999/xlink" version="1.1" width="1080" height="1080" viewBox="0 0 1080 1080" xml:space="preserve">
<desc>Created with Fabric.js 5.2.4</desc>
<defs>
</defs>
<g transform="matrix(1 0 0 1 540 540)" id="06c9afc9-0f31-459f-8f73-0e76a987a757"  >
<rect style="stroke: none; stroke-width: 1; stroke-dasharray: none; stroke-linecap: butt; stroke-dashoffset: 0; stroke-linejoin: miter; stroke-miterlimit: 4; fill: rgb(255,255,255); fill-rule: nonzero; opacity: 1; visibility: hidden;" vector-effect="non-scaling-stroke"  x="-540" y="-540" rx="0" ry="0" width="1080" height="1080" />
</g>
<g transform="matrix(1 0 0 1 540 540)" id="b59d0318-67c5-4bf5-8d39-46e6df2aafb3"  >
</g>
<g transform="matrix(1 0 0 1 540 540)" id="680df15d-795f-4ca6-a95b-c241544c80b1"  >
<path style="stroke: rgb(248,255,0); stroke-width: 0; stroke-dasharray: none; stroke-linecap: butt; stroke-dashoffset: 0; stroke-linejoin: miter; stroke-miterlimit: 4; fill: rgb(171,183,0); fill-rule: nonzero; opacity: 1;" vector-effect="non-scaling-stroke"  transform=" translate(-256, -256)" d="M 408.864 79.052 C 386.46299999999997 45.154 342.756 36.779 310.051 55.464000000000006 C 280.577 23.995000000000005 230.906 24.371000000000006 201.71699999999998 55.44200000000001 C 154.557 28.422000000000008 93.00699999999999 60.49700000000001 91.04599999999998 116.248 C 44.846 105.407 0 140.001 0 187.429 L 0 244.382 C 0 277.123 14.28 308.336 39.18 330.016 L 136.89 415.09700000000004 C 141.142 418.79900000000004 140 420.67 140 448.00000000000006 C 140 465.67300000000006 154.327 480.00000000000006 172 480.00000000000006 L 424 480.00000000000006 C 441.673 480.00000000000006 456 465.67300000000006 456 448.00000000000006 C 456 424.4870000000001 454.985 417.25500000000005 459.982 405.63000000000005 L 502.817 305.97400000000005 C 508.911 291.797 512 276.802 512 261.40600000000006 L 512 146.963 C 512 94.124 457.686 58.30099999999999 408.86400000000003 79.05199999999999 z M 464 261.406 C 464.0066503390792 270.2147619389878 462.20904571304277 278.93154484066736 458.718 287.01899999999995 L 415.88300000000004 386.674 C 410.653 398.84499999999997 408.00000000000006 411.714 408.00000000000006 424.924 L 408.00000000000006 432 L 188 432 L 188 421.714 C 188 405.344 180.86 389.737 168.41 378.897 L 70.7 293.817 C 56.274 281.255 48 263.236 48 244.381 L 48 187.428 C 48 154.22 100 153.891 100 188.105 L 100 229.333 C 99.99988569950064 233.96040657123794 102.00318210598918 238.36123994773484 105.493 241.4 L 112.493 247.495 C 117.22230348135056 251.61304253684844 123.92131502461751 252.58869138946105 129.62875186884727 249.99066320964153 C 135.33618871307704 247.39263502982197 138.99976296916446 241.69993180459045 139 235.429 L 139 118.857 C 139 85.75999999999999 191 85.132 191 119.534 L 191 146.285 C 191 155.121 198.164 162.285 207 162.285 L 214 162.285 C 222.836 162.285 230 155.121 230 146.285 L 230 105.142 C 230 72.008 282 71.467 282 105.819 L 282 146.285 C 282 155.121 289.163 162.285 298 162.285 L 305 162.285 C 313.837 162.285 321 155.121 321 146.285 L 321 118.856 C 321 85.826 373 85.076 373 119.533 L 373 146.284 C 373 155.12 380.163 162.284 389 162.284 L 396 162.284 C 404.837 162.284 412 155.12 412 146.284 C 412 113.13799999999999 464 112.67099999999999 464 146.96099999999998 L 464 261.40599999999995 z" stroke-linecap="round" />
</g>
</svg>