<?xml version="1.0" encoding="UTF-8" standalone="no" ?>
<!DOCTYPE svg PUBLIC "-//W3C//DTD SVG 1.1//EN" "http://www.w3.org/Graphics/SVG/1.1/DTD/svg11.dtd">
<svg xmlns="http://www.w3.org/2000/svg" xmlns:xlink="http://www.w3.org/1999/xlink" version="1.1" width="1080" height="1080" viewBox="0 0 1080 1080" xml:space="preserve">
<desc>Created with Fabric.js 5.2.4</desc>
<defs>
</defs>
<g transform="matrix(1 0 0 1 540 540)" id="dcc05680-c5d5-4f01-a463-ed85562d5273"  >
<rect style="stroke: none; stroke-width: 1; stroke-dasharray: none; stroke-linecap: butt; stroke-dashoffset: 0; stroke-linejoin: miter; stroke-miterlimit: 4; fill: rgb(255,255,255); fill-rule: nonzero; opacity: 1; visibility: hidden;" vector-effect="non-scaling-stroke"  x="-540" y="-540" rx="0" ry="0" width="1080" height="1080" />
</g>
<g transform="matrix(1 0 0 1 540 540)" id="a2a53075-fb5e-4031-b2b0-258ee5c96208"  >
</g>
<g transform="matrix(1 0 0 1 540 540)"  >
<path style="stroke: rgb(2,122,178); stroke-width: 0; stroke-dasharray: none; stroke-linecap: butt; stroke-dashoffset: 0; stroke-linejoin: miter; stroke-miterlimit: 4; fill: rgb(171,184,1); fill-rule: nonzero; opacity: 1;" vector-effect="non-scaling-stroke"  transform=" translate(-224, -256)" d="M 372.57 112.641 L 372.57 101.816 C 372.57 58.204 332.05 25.125 289.531 36.269999999999996 C 263.902 -13.230000000000004 195.441 -11.180000000000007 171.549 37.016999999999996 C 130.269 26.456 89.144 57.945 89.144 102 L 89.144 228.13 C 69.191 220.703 45.836000000000006 223.06199999999998 27.061000000000007 237.001 C -2.2939999999999934 258.797 -8.73299999999999 300.334 12.511000000000006 330.154 L 132.48 498.569 C 138.4845044600776 506.99691747736506 148.19386650567955 512.0009904954192 158.542 512.001 L 381.43899999999996 512.001 C 396.34299999999996 512.001 409.27399999999994 501.712 412.621 487.188 L 442.805 356.23 C 446.25441267731225 341.2528172248444 447.99717645429433 325.93326945975025 448 310.5640000000001 L 448 179 C 448 138.38 412.477 107.008 372.57 112.641 z M 399.997 310.563 C 399.997 322.294 398.663 334.032 396.03200000000004 345.449 L 368.707 464 L 166.787 464 L 51.591 302.303 C 37.152 282.033 66.614 259.527 80.985 279.698 L 108.113 317.777 C 117.108 330.40299999999996 137.144 324.06399999999996 137.144 308.49399999999997 L 137.144 102 C 137.144 76.355 173.715 77.19 173.715 102.691 L 173.715 256 C 173.715 264.837 180.87800000000001 272 189.715 272 L 196.571 272 C 205.408 272 212.571 264.837 212.571 256 L 212.571 67 C 212.571 41.337 249.142 42.19 249.142 67.691 L 249.142 256 C 249.142 264.837 256.305 272 265.142 272 L 271.998 272 C 280.835 272 287.998 264.837 287.998 256 L 287.998 101.125 C 287.998 75.453 324.568 76.315 324.568 101.816 L 324.568 256 C 324.568 264.837 331.731 272 340.568 272 L 347.425 272 C 356.262 272 363.425 264.837 363.425 256 L 363.425 179.691 C 363.425 153.449 399.995 154.051 399.995 179 L 399.995 310.563 z" stroke-linecap="round" />
</g>
</svg>