<?xml version="1.0" encoding="UTF-8" standalone="no" ?>
<!DOCTYPE svg PUBLIC "-//W3C//DTD SVG 1.1//EN" "http://www.w3.org/Graphics/SVG/1.1/DTD/svg11.dtd">
<svg xmlns="http://www.w3.org/2000/svg" xmlns:xlink="http://www.w3.org/1999/xlink" version="1.1" width="1080" height="1080" viewBox="0 0 1080 1080" xml:space="preserve">
<desc>Created with Fabric.js 5.2.4</desc>
<defs>
</defs>
<g transform="matrix(1 0 0 1 540 540)" id="a718a75b-58b9-4774-b6af-f089b1dfe78d"  >
<rect style="stroke: none; stroke-width: 1; stroke-dasharray: none; stroke-linecap: butt; stroke-dashoffset: 0; stroke-linejoin: miter; stroke-miterlimit: 4; fill: rgb(255,255,255); fill-rule: nonzero; opacity: 1; visibility: hidden;" vector-effect="non-scaling-stroke"  x="-540" y="-540" rx="0" ry="0" width="1080" height="1080" />
</g>
<g transform="matrix(1 0 0 1 540 540)" id="c8526632-b9d5-4d18-9e83-6fba3e87e2cb"  >
</g>
<g transform="matrix(1 0 0 1 540 540)" id="ddde34b8-dd90-48a4-b0b2-111a9286c4bf"  >
<path style="stroke: rgb(0,0,0); stroke-width: 0; stroke-dasharray: none; stroke-linecap: butt; stroke-dashoffset: 0; stroke-linejoin: miter; stroke-miterlimit: 4; fill: rgb(171,183,0); fill-rule: nonzero; opacity: 1;" vector-effect="non-scaling-stroke"  transform=" translate(-256, -256)" d="M 256 480 L 326 479.987 C 331.114 479.987 336.231 479.404 341.203 478.25800000000004 L 460.202 450.831 C 490.56 443.835 512 417.02 512 386.277 L 512 180.575 C 512 156.73 498.97 134.624 477.995 122.88499999999999 L 379.996 68.03199999999998 C 345.587 48.77099999999999 312.73299999999995 62.207999999999984 287.77799999999996 92.76499999999999 L 142.85 37.008 C 104.963 22.429000000000002 62.238 40.735 47.208 78.209 C 32.11 115.851 50.842999999999996 158.579 89.15 173.321 L 168 192 L 74 182.859 C 33.196 182.859 0 215.67000000000002 0 255.99900000000002 C 0 296.329 33.196 329.14000000000004 74 329.14000000000004 L 161.635 329.14000000000004 C 157.95999999999998 355.38500000000005 170.327 380.437 191.976 394.1460000000001 C 178.657 436.737 211.044 480 256 480 z M 256 431.987 C 230.84 431.987 230.88 395.42 256 395.42 C 264.837 395.42 272 388.257 272 379.42 L 272 372.564 C 272 363.72700000000003 264.837 356.564 256 356.564 L 228 356.564 C 202.841 356.564 202.878 319.997 228 319.997 L 256 319.997 C 264.837 319.997 272 312.834 272 303.997 L 272 297.141 C 272 288.30400000000003 264.837 281.141 256 281.141 L 74 281.141 C 39.57 281.141 39.625 230.86 74 230.86 L 256 230.86 C 264.837 230.86 272 223.697 272 214.86 L 272 203.228 C 272.00015244953875 196.60843155377165 267.9239735275701 190.67225251712674 261.746 188.29500000000002 L 106.389 128.51 C 74.83699999999999 116.36999999999999 92.957 69.22699999999999 125.61099999999999 81.79299999999999 L 292.15999999999997 145.884 C 298.61101705767584 148.3661907015383 305.92666199492913 146.42546169563593 310.299 141.07199999999997 L 332.063 114.42499999999998 C 337.883 107.29799999999999 348.411 105.36099999999999 356.551 109.91699999999999 L 454.551 164.771 C 460.37899999999996 168.034 464 174.089 464 180.576 L 464 386.277 C 464 394.768 458.006 402.08099999999996 449.424 404.05899999999997 L 330.423 431.486 C 328.9723053410718 431.8195365540193 327.48854345677603 431.98794000550396 326 431.988 L 256 431.988 z" stroke-linecap="round" />
</g>
</svg>